PathFileType	4	(X/Y/Z)	C:/Users/beibeiliu/ov580/test_trc\sequence.40_training_dense_left.trc
DataRate	CameraRate	NumFrames	NumMarkers	Units	OrigDataRate	OrigDataStartFrame	OrigNumFrames
120	120	14	19	mm	120	51	75
Frame#	Time	ThumbCMC			ThumbMCP			ThumbIP			ThumbTip			IndexMCP			IndexPIP			IndexTip			MiddleMCP			MiddlePIP			MiddleTip			RingMCP			RingPIP			RingTip			PinkyMCP			PinkyPIP			PinkyTip			BackHand1			BackHand2			BackHand3	
		X0	Y0	Z0	X1	Y1	Z1	X2	Y2	Z2	X3	Y3	Z3	X4	Y4	Z4	X5	Y5	Z5	X6	Y6	Z6	X7	Y7	Z7	X8	Y8	Z8	X9	Y9	Z9	X10	Y10	Z10	X11	Y11	Z11	X12	Y12	Z12	X13	Y13	Z13	X14	Y14	Z14	X15	Y15	Z15	X16	Y16	Z16	X17	Y17	Z17	X18	Y18	Z18	
50	0.416667	-223.767	3.95675	126.432	-227.673	14.3601	98.4751	-234.428	16.5053	74.2624	-242.365	18.1483	51.972	-213.558	2.25275	55.0976	-203.003	33.4518	54.1201	-203.472	32.423	86.0357	-187.938	4.94927	54.3211	-184.799	35.4488	63.6366	-188.118	24.4976	97.7117	-170.385	5.3194	59.8988	-170.139	35.2212	75.5177	-180.044	18.6757	104.581	-152.376	-11.5511	64.1414	-146.792	-3.6668	45.3916	-146.357	3.44413	22.4289	-172.3	-32.1218	105.687	-174.31	-33.2156	133.331	-203.794	-29.719	116.75	
51	0.425	-234.194	7.44947	131.032	-241.389	19.9171	104.896	-247.606	19.8709	79.5527	-257.883	20.7171	55.0411	-231.24	1.34743	57.3271	-220.088	29.6493	56.2969	-212.965	25.9659	90.1456	-208.493	-1.04738	56.3743	-202.027	28.8568	60.5875	-201.431	16.9006	101.046	-191.824	-1.5401	59.4526	-186.813	26.9101	72.3371	-188.938	15.903	102.945	-171.471	-24.5193	64.996	-171.337	-15.4056	39.9075	-171.969	-7.68628	18.4178	-193.395	-37.0726	105.426	-188.839	-36.5766	135.802	-223.691	-29.9983	121.036	
52	0.433333	-237.862	12.935	131.623	-243.31	27.495	109.788	-259.142	31.0589	79.6145	-265.641	34.1166	60.9987	-244.264	8.41397	61.4448	-227.291	33.9673	57.8508	-217.569	28.1823	90.6715	-221.653	4.73367	55.1403	-209.877	30.9467	62.4433	-211.541	22.8285	100.061	-203.328	-4.19471	60.276	-194.788	24.4369	71.2245	-197.908	14.0062	104.003	-192.767	-27.0206	61.7722	-192.516	-18.1016	37.8622	-190.78	-14.1573	12.1434	-212.084	-34.9695	104.73	-204.54	-37.9375	138.141	-238.744	-22.2056	122.58	
53	0.441667	-234.404	31.1057	137.019	-240.316	46.6907	109.788	-251.583	56.5668	85.9416	-256.774	60.4362	67.955	-248.388	31.5115	66.1687	-222.906	50.6941	62.7257	-212.236	42.5027	91.295	-231.219	23.3178	58.9569	-205.408	40.3058	67.3881	-206.875	28.5124	101.737	-217.212	10.5658	60.0486	-194.355	26.9387	69.7961	-197.808	22.2905	102.041	-214.941	-17.934	60.4463	-212.512	-8.83564	37.9264	-211.95	-5.61132	14.5285	-228.411	-28.0153	107.085	-222.294	-29.2284	134.624	-248.965	-2.51955	124.925	
54	0.45	-218.212	51.8536	135.93	-213.94	68.4304	116.189	-221.513	85.8151	93.5733	-225.522	92.6002	73.9972	-230.881	65.1084	69.9586	-198.036	70.1779	67.9457	-193.758	54.5305	93.8587	-220.928	45.3942	60.0671	-190.069	53.2705	69.1655	-194.431	41.0561	102.892	-212.741	28.0403	58.9837	-182.868	34.6865	70.6184	-189.371	29.8487	100.878	-223.136	6.48761	54.697	-218.023	13.9135	35.4459	-215.717	21.422	12.7923	-238.62	-0.352483	102.805	-228.384	-9.6323	131.579	-241.475	27.6526	127.293	
55	0.458333	-191.786	60.8417	136.526	-181.59	80.9987	115.923	-182.2	95.5873	95.4764	-181.782	112.342	76.8015	-201.584	85.4877	73.0596	-170.726	78.124	67.3196	-171.714	59.1161	94.0153	-199.584	68.0318	61.9873	-167.266	60.9055	67.1279	-173.891	45.1581	97.723	-201.509	49.7305	59.7818	-168.32	40.7941	69.2601	-175.983	35.1227	98.6936	-218.715	28.3397	53.0211	-210.748	35.2285	35.8278	-204.425	38.916	6.9522	-231.782	30.755	103.055	-228.658	18.1621	128.706	-225.958	50.7476	130.239	
56	0.466667	-165.981	63.7715	134.737	-148.2	76.517	116.12	-140.774	93.4285	96.1409	-134.622	104.975	80.4656	-162.662	90.8797	71.4193	-138.547	73.0696	66.4255	-145.249	54.7262	91.761	-169.884	72.7991	58.5907	-145.769	51.5817	64.2997	-158.888	42.1311	97.0121	-180.345	55.9487	57.3633	-153.739	36.2174	65.8838	-162.908	36.1181	97.2797	-203.446	43.7134	54.5336	-194.175	44.7323	34.2031	-187.613	44.8123	6.39944	-217.937	50.1435	95.9797	-220.645	34.0398	127.473	-198.884	67.7883	125.36	
57	0.475	-146.307	50.5061	135.178	-125.865	55.8141	116.008	-112.613	68.5754	92.6615	-100.818	77.7396	78.3765	-128.482	72.4789	67.3829	-116.251	47.0273	64.3496	-129.483	37.6604	92.6398	-144.455	58.9573	55.2058	-128.155	33.6142	59.1438	-143.456	30.6635	96.421	-154.635	45.5807	52.4349	-138.418	22.2214	63.6789	-148.53	22.8984	93.2004	-184.557	42.0106	49.4234	-174.91	36.755	26.9433	-169.484	35.3882	5.28415	-196.015	54.4184	94.5618	-201.797	47.6071	124.212	-176.302	67.4511	122.992	
58	0.483333	-129.555	34.5506	139.756	-110.016	31.0332	119.48	-91.5536	37.1765	102.533	-75.2207	43.1044	84.8379	-107.555	44.728	70.6929	-99.3018	15.7027	68.5054	-119.16	13.858	98.9539	-125.317	34.2073	58.8847	-115.813	3.2469	69.305	-131.242	10.5093	101.302	-140.202	24.8521	55.1048	-130.645	-3.30447	68.9494	-140.011	3.69991	97.2065	-165.8	26.7709	48.5998	-154.605	18.457	31.8998	-145.625	10.2973	7.61991	-171.816	49.6828	92.0564	-187.945	43.1468	121.553	-155.619	57.188	119.447	
59	0.491667	-121.021	13.7843	148.006	-100.277	4.84583	129.382	-80.16	5.78877	112.666	-63.4645	6.50463	94.7654	-88.2547	11.0828	79.0238	-86.5331	-17.5875	85.9602	-108.515	-13.8127	106.741	-108.914	2.63954	65.6582	-104.96	-24.7271	78.0079	-125.356	-13.7142	107.742	-124.796	-4.64866	62.331	-121.394	-28.3037	81.9899	-136.217	-13.0803	109.032	-150.248	4.00766	56.4366	-137.682	-11.7167	36.1621	-128.404	-22.0764	21.3406	-162.279	31.2206	95.5441	-176.203	32.4577	120.901	-137.525	39.9763	124.834	
60	0.5	-115.175	3.61234	157.222	-94.6028	-8.38513	141.606	-69.3037	-10.5411	123.442	-55.5656	-12.0047	109.744	-82.5168	-4.94897	92.5844	-78.6354	-36.1588	96.5876	-103.226	-27.3598	122.249	-94.989	-16.4824	80.7641	-96.1451	-44.1741	93.2298	-113.746	-27.9466	125.476	-114.356	-25.2773	75.077	-115.117	-49.0043	96.2752	-125.664	-31.7593	120.828	-135.844	-17.9707	66.1913	-126.752	-35.8813	51.5744	-115.687	-50.5575	35.7358	-146.85	14.6923	98.8579	-166.451	19.2643	127.501	-133.506	23.6147	127.637	
61	0.508333	-111.13	3.12667	162.587	-87.9062	-9.61821	152.57	-64.8486	-12.6225	138.883	-45.1497	-14.7903	124.29	-77.2996	-13.7686	100.686	-70.5175	-43.0888	111.937	-91.8	-33.5221	136.977	-87.3442	-29.5869	92.3519	-87.9872	-53.3722	112.488	-106.689	-34.9031	137.684	-108.231	-39.6161	87.535	-102.603	-58.3763	112.756	-121.136	-39.246	134.947	-128.227	-39.3102	74.5565	-113.763	-57.0513	67.4009	-99.2817	-74.0774	60.1702	-143.145	-0.098645	102.167	-161.545	7.27737	127.176	-128.467	20.8359	133.739	
62	0.516667	-112.227	8.79755	165.989	-84.586	-1.54734	155.633	-64.5641	-3.40165	145.854	-42.7483	-4.77575	130.4	-69.1559	-14.5478	108.857	-59.2501	-36.7588	125.402	-88.0467	-26.2593	144.898	-81.0062	-31.1332	103.178	-74.0064	-49.4736	129.834	-100.273	-34.3128	148.931	-95.8731	-47.6634	102.437	-88.079	-58.1814	129.234	-111.127	-37.2537	148.198	-117.65	-52.9697	91.0266	-101.609	-71.175	88.5352	-84.1329	-89.6688	83.0957	-142.47	-8.26358	110.704	-159.651	-1.5544	132.126	-130.548	14.6811	132.618	
63	0.525	-117.956	18.0442	160.399	-89.8391	14.3613	153.877	-68.14	15.5653	141.143	-47.4218	15.4654	127.34	-70.7887	-2.33951	109.096	-57.119	-18.6795	131.063	-85.5232	-9.65019	147.118	-76.5448	-24.9464	106.478	-65.7112	-34.4084	132.862	-93.4946	-18.0949	151.956	-89.7519	-39.6209	108.086	-79.0024	-44.2416	138.402	-104.699	-28.9004	152.686	-108.581	-52.1127	100.096	-89.4731	-69.4315	100.634	-65.7436	-80.7026	97.5026	-140.432	-14.4929	111.694	-165.876	-11.6903	130.711	-135.897	15.3284	126.186	
